<?xml version="1.0" standalone="no"?>
<!DOCTYPE svg PUBLIC "-//W3C//DTD SVG 20010904//EN">
<svg version="1.0" xmlns="http://www.w3.org/2000/svg"
 width="2000.000000pt" height="150.000000pt" viewBox="0 0 2000.000000 150.000000"
 preserveAspectRatio="xMidYMid meet">

<g transform="translate(0.000000,150.000000) scale(0.100000,-0.100000)"
fill="#7b1fa2" stroke="none">
<path d="M5775 1489 c-3158 -16 -5073 -53 -5263 -101 -97 -24 -207 -166 -295
-383 -111 -271 -217 -713 -217 -906 l0 -99 10000 0 10000 0 0 96 c0 106 -25
243 -91 504 -55 216 -110 374 -181 519 -50 101 -73 136 -127 191 -80 82 -92
85 -366 100 -1293 68 -7994 108 -13460 79z"/>
</g>
</svg>
